<svg width="372" height="603" xmlns="http://www.w3.org/2000/svg">

 <g>
  <title>background</title>
  <rect fill="none" id="canvas_background" height="605" width="374" y="-1" x="-1"/>
 </g>
 <g>
  <title>Layer 1</title>
  <path id="svg_1" d="m186.217,111.457c-25.137,0 -50.162,0 -75.298,0c-1.531,0 -2.186,0.328 -2.077,2.076c0.001,21.42 0.001,42.73 0.001,64.15c0,1.094 0.437,2.078 1.31,2.733c24.918,20.764 49.726,41.528 74.533,62.402c1.093,0.874 1.749,0.983 2.843,0c24.807,-20.765 49.615,-41.528 74.533,-62.293c0.983,-0.765 1.528,-1.857 1.42,-3.169c-0.001,-21.092 -0.001,-42.293 0,-63.386c0,-2.404 0,-2.404 -2.404,-2.403c-24.917,-0.109 -49.943,-0.11 -74.861,-0.11l0,0zm-0.109,380.424c24.809,0 49.726,0 74.533,0c2.731,0 2.731,0 2.731,-2.622c0,-20.983 0,-42.075 0,-63.059c0.11,-1.421 -0.436,-2.622 -1.639,-3.388c-24.809,-20.655 -49.506,-41.31 -74.205,-61.965c-1.093,-0.983 -1.75,-0.983 -2.951,0c-24.699,20.655 -49.398,41.309 -74.205,61.965c-1.203,0.874 -1.749,2.075 -1.64,3.606c0,20.983 0,42.075 0,63.058c0,2.514 0,2.514 2.514,2.513c25.028,-0.108 49.944,-0.108 74.862,-0.108zm79.124,-190.158l8.086,6.666c17.377,14.317 34.973,28.524 52.238,43.06c18.689,15.628 30.055,35.627 34.644,59.56c1.422,7.322 2.078,14.646 2.078,22.186c-0.001,29.508 0.655,59.015 -0.328,88.412c-0.876,26.885 -12.352,48.633 -36.395,62.512c-8.522,4.809 -17.595,7.65 -27.32,8.415c-3.388,0.328 -6.886,0.438 -10.272,0.438c-67.866,0 -135.733,0 -203.599,0c-14.646,0 -28.306,-2.951 -40.765,-10.819c-16.392,-10.491 -26.338,-25.573 -31.036,-44.261c-1.64,-6.559 -2.514,-13.333 -2.515,-20.108c0,-29.18 -0.436,-58.359 0.109,-87.538c0.656,-32.458 13.115,-59.779 38.579,-80.544c18.796,-15.409 37.593,-30.928 56.391,-46.337c0.546,-0.437 1.202,-0.984 1.857,-1.639c-0.546,-0.548 -0.984,-0.983 -1.531,-1.312c-19.561,-16.175 -39.343,-32.13 -58.795,-48.414c-18.688,-15.628 -30.054,-35.736 -34.535,-59.669c-1.419,-7.324 -2.076,-14.863 -2.076,-22.294c0,-29.07 -0.436,-58.14 0.219,-87.21c0.546,-22.84 9.07,-42.512 27.321,-57.156c9.835,-7.869 20.983,-12.678 33.441,-14.207c4.263,-0.547 8.524,-0.875 12.895,-0.875c68.194,0 136.281,-0.109 204.476,-0.109c14.425,0 28.086,3.061 40.436,10.819c16.282,10.383 26.118,25.355 30.927,43.934c1.749,6.666 2.624,13.441 2.515,20.326c-0.002,29.398 0.437,58.796 -0.22,88.193c-0.655,32.351 -13.442,59.452 -38.687,80.107c-18.798,15.409 -37.595,30.819 -56.393,46.337c-0.543,0.436 -1.091,0.872 -1.745,1.527z" fill="#FE5F55"/>
  <path id="svg_2" opacity="0.996" d="m141.082,172.22c0,-0.328 0,-0.656 0.108,-0.875c0.219,-0.656 0.438,-1.42 0.656,-1.968c1.64,-4.371 6.229,-7.212 11.584,-7.321c6.229,0 12.569,0 18.797,0c3.17,0.108 6.011,-0.985 8.306,-3.17c0.984,-0.983 1.639,-2.076 2.076,-3.278c0.437,-1.093 1.093,-1.53 2.295,-1.421c0.328,0 0.545,0 0.874,0c1.969,-0.219 3.061,0.219 4.045,2.404c1.747,4.044 5.683,5.355 9.836,5.464c6.01,0.11 12.021,-0.109 18.032,0.109c2.514,0.109 4.918,0.656 7.322,1.749c3.714,1.75 5.464,5.027 5.571,9.18c0.11,1.529 0.111,2.95 -0.107,4.372c0,0.436 -0.765,0.874 -1.203,1.312c-0.108,0.108 -0.218,0 -0.327,0c-4.372,0 -3.716,0.437 -3.716,-3.389c0,-3.714 -1.639,-5.573 -5.354,-5.792c-3.388,-0.219 -6.667,-0.219 -10.055,-0.327c-3.826,-0.109 -7.65,0 -11.475,0c-5.246,-0.11 -9.291,-2.405 -11.695,-7.213c-0.108,-0.218 -0.218,-0.438 -0.327,-0.656c-0.109,-0.109 -0.218,-0.11 -0.438,-0.218c-0.219,0.218 -0.328,0.546 -0.546,0.765c-1.967,4.917 -5.902,7.104 -10.928,7.212c-6.121,0.219 -12.241,0 -18.47,0.11c-1.967,0 -3.825,0.218 -5.792,0.655c-2.623,0.656 -3.606,2.077 -3.606,4.808c0,3.826 0,3.826 -3.934,3.935c-0.547,0 -1.093,0.109 -1.53,0.109c0.002,-2.076 0.001,-4.261 0.001,-6.556z" fill="#EEF5DB"/>
  <path id="svg_3" opacity="0.996" d="m141.082,424.452c1.42,0 2.841,0.11 4.262,0.219c0.655,0.218 0.984,0.655 1.202,1.201c0.109,0.655 0.109,1.421 0.11,2.077c0,3.716 1.53,5.573 5.354,5.791c3.387,0.22 6.885,0.328 10.273,0.329c3.826,0.109 7.54,0 11.365,0c5.245,0.109 9.291,2.294 11.695,7.104c0.217,0.328 0.437,0.765 0.655,1.093c0.219,-0.22 0.438,-0.547 0.546,-0.874c1.967,-5.027 6.011,-7.104 11.039,-7.322c6.229,-0.219 12.458,0 18.579,-0.109c1.967,0 3.935,-0.328 5.901,-0.874c2.404,-0.656 3.168,-1.968 3.168,-4.482l0.001,-0.326c0,-4.153 0,-4.153 4.044,-3.716c0.438,0 1.2,0.655 1.201,1.093c0.218,1.967 0.108,3.934 -0.108,5.792c-0.874,5.792 -5.684,9.727 -11.803,9.727c-6.23,0 -12.46,-0.109 -18.579,0.109c-2.076,0.109 -4.153,0.655 -6.121,1.421c-2.405,0.874 -3.934,2.622 -4.59,5.135c0,0.438 -0.22,0.767 -0.545,1.094c-0.328,0.219 -0.768,0.327 -1.203,0.328c-0.656,0 -1.312,0 -1.969,-0.001c-1.638,0.22 -2.513,-0.327 -3.168,-2.075c-1.966,-4.372 -5.901,-5.683 -10.273,-5.901c-6.228,-0.219 -12.567,-0.001 -18.797,-0.109c-4.48,-0.109 -8.306,-1.858 -10.71,-5.792c-0.654,-1.202 -1.093,-2.404 -1.42,-3.716c0,-0.109 -0.001,-0.219 -0.109,-0.438c0,-2.188 0.001,-4.483 0,-6.778z" fill="#EEF5DB"/>
  <path id="svg_4" d="m86.582,228.412l-2.017,-1.841l7.565,-8.779l-5.329,3.571l-1.594,-1.367l2.8,-5.761l-7.565,8.779l-2.019,-1.84l11.208,-13.031l2.402,2.103l-3.393,7.318l6.729,-4.392l2.509,2.082l-11.296,13.158z" fill="#EEF5DB"/>
  <path id="svg_5" d="m96.68,237.061l1.709,-3.883l-4.358,-3.621l-3.558,2.344l-2.127,-1.822l15.185,-9.669l2.382,1.995l-6.979,16.565l-2.254,-1.909zm-0.491,-9.027l3.189,2.732l2.938,-6.788l-6.127,4.056z" fill="#EEF5DB"/>
  <path id="svg_6" d="m116.504,239.527l-1.849,-1.54l2.45,-2.913l-1.722,-1.453l-7.894,9.398l2.106,1.712l-1.54,1.849l-6.23,-5.267l1.54,-1.852l2.105,1.715l7.895,-9.396l-1.85,-1.54l-2.45,2.913l-1.851,-1.54l3.99,-4.763l9.396,7.894l-4.096,4.783z" fill="#EEF5DB"/>
  <path id="svg_7" d="m127.751,248.96l-1.85,-1.54l2.451,-2.913l-1.722,-1.451l-7.915,9.289l2.105,1.714l-1.54,1.849l-6.229,-5.268l1.541,-1.85l2.104,1.712l7.894,-9.396l-1.85,-1.54l-2.45,2.913l-1.851,-1.539l3.991,-4.763l9.397,7.892l-4.076,4.891z" fill="#EEF5DB"/>
  <path id="svg_8" d="m130.44,265.469l-6.336,-5.249l1.54,-1.852l2.104,1.717l7.896,-9.399l-2.106,-1.712l1.539,-1.851l6.337,5.25l-1.54,1.849l-2.127,-1.822l-7.892,9.399l2.125,1.821l-1.54,1.849z" fill="#EEF5DB"/>
  <path id="svg_9" d="m141.559,274.815l1.71,-3.885l-4.359,-3.621l-3.559,2.345l-2.125,-1.822l15.184,-9.669l2.381,1.995l-6.979,16.565l-2.253,-1.908zm-0.578,-8.9l3.189,2.73l2.938,-6.788l-6.127,4.058z" fill="#EEF5DB"/>
  <path id="svg_10" d="m157.137,281.868c-0.543,0.659 -1.019,1.083 -1.643,1.313c-0.603,0.336 -1.248,0.46 -1.802,0.453c-0.667,0.016 -1.245,-0.097 -1.843,-0.317c-0.598,-0.22 -1.215,-0.549 -1.747,-1.003c-0.66,-0.543 -1.105,-1.125 -1.442,-1.73c-0.336,-0.602 -0.371,-1.373 -0.301,-2.166l-0.997,1.191l-1.848,-1.541l3.641,-4.25l1.85,1.54c-0.368,0.404 -0.609,0.894 -0.741,1.364c-0.134,0.47 -0.161,0.921 -0.079,1.349c0.083,0.43 0.165,0.859 0.459,1.249c0.19,0.409 0.485,0.797 0.868,1.058c0.661,0.542 1.257,0.762 1.835,0.875c0.664,-0.015 1.181,-0.224 1.724,-0.883c0.281,-0.277 0.434,-0.64 0.481,-0.982c0.046,-0.341 0.093,-0.684 0.031,-1.006c-0.061,-0.323 -0.143,-0.752 -0.438,-1.141c-0.189,-0.409 -0.378,-0.818 -0.695,-1.313c-0.338,-0.604 -0.654,-1.101 -0.99,-1.704c-0.338,-0.603 -0.568,-1.227 -0.669,-1.764c-0.123,-0.645 -0.117,-1.202 -0.024,-1.887c0.113,-0.577 0.42,-1.303 0.963,-1.962c0.454,-0.531 1.038,-0.976 1.554,-1.186c0.625,-0.23 1.161,-0.332 1.718,-0.327c0.557,0.005 1.242,0.098 1.732,0.339c0.597,0.219 1.108,0.567 1.64,1.023c0.66,0.542 0.975,1.039 1.207,1.662c0.229,0.624 0.244,1.289 0.131,1.866l0.998,-1.191l1.85,1.541l-3.448,4.102l-1.85,-1.54c0.629,-0.787 0.936,-1.513 0.901,-2.284c-0.036,-0.772 -0.393,-1.482 -1.053,-2.025c-0.658,-0.541 -1.258,-0.763 -1.834,-0.876c-0.686,-0.092 -1.182,0.225 -1.658,0.649c-0.174,0.256 -0.347,0.511 -0.393,0.854c-0.067,0.235 -0.006,0.558 0.055,0.879c0.06,0.323 0.23,0.625 0.419,1.034c0.189,0.409 0.377,0.818 0.694,1.313c0.337,0.605 0.674,1.207 1.012,1.811c0.337,0.604 0.459,1.248 0.581,1.892c0.122,0.644 0.138,1.31 -0.063,2.014c0.171,0.301 -0.244,1.048 -0.786,1.707z" fill="#EEF5DB"/>
  <g id="svg_11" fill="#EEF5DB">
   <path id="svg_12" d="m222.338,278.619l-2.05,1.781l-4.79,-5.718l-4.205,3.563l4.788,5.718l-2.05,1.78l-11.027,-13.159l2.05,-1.782l4.677,5.5l4.208,-3.564l-4.678,-5.5l2.048,-1.781l11.029,13.162z"/>
   <path id="svg_13" d="m232.586,270.041l-3.536,-2.349l-4.315,3.676l1.702,3.908l-2.157,1.783l-6.928,-16.614l2.372,-2.005l15.127,9.708l-2.265,1.893zm-8.976,-0.952l3.236,-2.674l-6.186,-4.055l2.95,6.729z"/>
   <path id="svg_14" d="m240.285,252.324c0.779,0.86 1.343,1.837 1.902,2.811c0.454,0.977 0.798,1.955 0.922,2.937c0.124,0.982 0.029,1.858 -0.284,2.846c-0.313,0.879 -0.955,1.764 -1.818,2.543c-0.971,0.779 -1.84,1.231 -2.819,1.356c-0.981,0.125 -1.858,0.138 -2.845,-0.174c-0.88,-0.315 -1.871,-0.738 -2.644,-1.381c-0.887,-0.641 -1.661,-1.394 -2.444,-2.367c-0.778,-0.86 -1.34,-1.834 -1.9,-2.81c-0.563,-0.975 -0.795,-1.955 -0.921,-2.937c-0.125,-0.981 -0.03,-1.967 0.282,-2.847c0.314,-0.878 0.957,-1.763 1.82,-2.542c0.214,-0.222 0.537,-0.445 0.864,-0.56s0.652,-0.229 1.086,-0.345c0.329,-0.006 0.767,-0.013 1.095,-0.018c0.329,0.104 0.769,0.207 1.099,0.421l-1.335,-1.51l1.833,-1.56l3.9,4.638l-1.836,1.561c-0.333,-0.433 -0.776,-0.753 -1.217,-0.965c-0.438,-0.212 -0.88,-0.422 -1.32,-0.526c-0.438,-0.102 -0.984,-0.094 -1.42,0.023c-0.436,0.116 -0.87,0.341 -1.301,0.676c-0.539,0.445 -0.969,0.999 -1.067,1.655c-0.098,0.658 -0.089,1.205 0.03,1.857c0.117,0.656 0.458,1.305 0.903,1.954c0.447,0.649 0.896,1.297 1.341,1.837c0.445,0.539 1.002,1.186 1.666,1.613c0.662,0.426 1.215,0.855 1.768,1.174c0.659,0.319 1.208,0.419 1.863,0.409c0.656,-0.01 1.197,-0.347 1.846,-0.793c0.864,-0.671 1.287,-1.551 1.383,-2.537c0.094,-0.984 -0.255,-2.181 -1.041,-3.481l-2.804,2.339l-1.559,-1.834l4.639,-3.898l0.333,0.435z"/>
   <path id="svg_15" d="m253.636,246.213c1,1.187 1.349,2.382 1.041,3.699c-0.308,1.316 -1.164,2.532 -2.675,3.868l-4.206,3.564l-11.026,-13.162l3.992,-3.342c0.54,-0.446 1.078,-0.892 1.73,-1.229c0.649,-0.338 1.192,-0.565 1.847,-0.686c0.653,-0.12 1.311,-0.021 1.859,0.19c0.659,0.208 1.216,0.745 1.881,1.392c0.557,0.647 0.896,1.408 1.02,2.279c0.123,0.874 -0.082,1.641 -0.506,2.521c1.086,-0.454 1.959,-0.577 2.832,-0.481c0.768,-0.011 1.431,0.524 2.211,1.387zm-2.275,1.456c-0.555,-0.648 -1.216,-0.965 -1.871,-0.844c-0.765,0.119 -1.521,0.46 -2.276,1.127l-2.158,1.783l3.23,3.884l2.157,-1.783c0.864,-0.669 1.289,-1.441 1.499,-2.099c0.208,-0.661 -0.022,-1.312 -0.581,-2.068zm-5.109,-5.166c-0.334,-0.433 -0.664,-0.646 -0.993,-0.75c-0.331,-0.104 -0.658,-0.1 -0.988,-0.095c-0.325,0.006 -0.652,0.231 -0.976,0.344c-0.325,0.223 -0.65,0.447 -0.864,0.668l-1.833,1.56l3.008,3.669l1.832,-1.559c0.325,-0.224 0.539,-0.557 0.755,-0.778c0.213,-0.22 0.428,-0.552 0.532,-0.882c0.104,-0.329 0.098,-0.656 0.094,-0.985c-0.116,-0.435 -0.233,-0.87 -0.567,-1.192z"/>
   <path id="svg_16" d="m267.321,240.86l-8.415,7.018l-11.026,-13.161l8.416,-7.019l1.559,1.834l-6.365,5.346l3.01,3.668l4.963,-4.121l1.558,1.833l-4.964,4.122l3.232,3.886l6.364,-5.349l1.668,1.943z"/>
   <path id="svg_17" d="m279.297,230.836l-2.699,2.229l-7.906,-2.501l-0.973,0.78l4.455,5.288l-2.048,1.78l-11.027,-13.162l4.313,-3.674c1.402,-1.225 2.813,-1.793 4.235,-1.816c1.419,-0.022 2.521,0.616 3.637,1.91c0.445,0.541 0.781,1.19 1.012,1.734c0.226,0.542 0.237,1.198 0.244,1.744c-0.101,0.548 -0.198,1.206 -0.521,1.757c-0.317,0.552 -0.637,1.104 -1.066,1.548l8.344,2.383zm-9.954,-7.386c-0.556,-0.648 -1.217,-0.964 -1.872,-0.954c-0.766,0.012 -1.415,0.348 -2.277,1.019l-2.267,1.893l3.344,4.103l2.264,-1.895c0.754,-0.666 1.292,-1.332 1.391,-1.988c0.206,-0.77 -0.025,-1.532 -0.583,-2.178z"/>
   <path id="svg_18" d="m285.492,214.672c0.776,0.861 1.34,1.835 1.9,2.811c0.456,0.978 0.797,1.957 0.921,2.938c0.125,0.98 0.03,1.858 -0.391,2.848c-0.315,0.878 -0.959,1.763 -1.93,2.543c-0.97,0.781 -1.836,1.233 -2.819,1.356c-0.981,0.125 -1.857,0.03 -2.844,-0.173c-0.88,-0.315 -1.871,-0.736 -2.647,-1.489c-0.883,-0.641 -1.662,-1.505 -2.443,-2.366c-0.776,-0.864 -1.339,-1.837 -1.899,-2.813c-0.455,-0.976 -0.797,-1.955 -0.921,-2.938c-0.125,-0.98 -0.032,-1.964 0.281,-2.846c0.314,-0.88 0.957,-1.763 1.93,-2.545c0.214,-0.22 0.539,-0.445 0.864,-0.558c0.328,-0.117 0.652,-0.229 1.088,-0.346c0.328,-0.005 0.765,-0.012 1.093,-0.017c0.33,0.104 0.769,0.207 1.1,0.419l-1.335,-1.509l1.834,-1.559l3.899,4.748l-1.835,1.559c-0.333,-0.432 -0.775,-0.751 -1.108,-0.966c-0.438,-0.212 -0.879,-0.424 -1.319,-0.525c-0.438,-0.104 -0.984,-0.096 -1.421,0.022c-0.433,0.115 -0.868,0.34 -1.301,0.676c-0.648,0.447 -0.967,0.999 -1.065,1.656c-0.1,0.658 -0.091,1.204 0.029,1.857c0.119,0.654 0.458,1.305 0.797,1.954c0.445,0.65 0.783,1.3 1.341,1.946c0.448,0.649 1.002,1.188 1.555,1.615c0.554,0.43 1.219,0.965 1.769,1.175c0.661,0.317 1.21,0.417 1.864,0.408c0.655,-0.01 1.198,-0.234 1.844,-0.794c0.865,-0.67 1.289,-1.549 1.383,-2.536c0.093,-0.984 -0.254,-2.182 -1.04,-3.48l-2.805,2.341l-1.558,-1.835l4.748,-3.9l0.441,0.323z"/>
  </g>
  <g id="svg_19" fill="#EEF5DB">
   <path id="svg_20" d="m96.455,366.732l-5.174,4.35l2.899,3.448l3.833,-3.158l0.714,0.916l-3.833,3.16l3.808,4.513l-1.043,0.802l-8.158,-9.688l6.218,-5.151l0.736,0.808z"/>
   <path id="svg_21" d="m112.542,368.147l-1.321,1.083l-6.337,-1.77l-1.468,1.275l3.439,4.109l-1.043,0.801l-8.159,-9.688l3.194,-2.727c1.064,-0.907 2.047,-1.387 3.054,-1.416c1.007,-0.03 1.803,0.457 2.646,1.285c0.368,0.405 0.628,0.79 0.761,1.259c0.131,0.472 0.156,0.921 0.074,1.35c-0.083,0.43 -0.166,0.86 -0.46,1.248c-0.19,0.408 -0.487,0.796 -0.892,1.165l6.512,2.026zm-6.885,-5.881c-0.542,-0.66 -1.145,-0.998 -1.829,-0.907c-0.686,0.091 -1.413,0.396 -2.073,0.938l-2.129,1.817l3.161,3.832l2.128,-1.816c0.681,-0.649 1.126,-1.232 1.25,-1.874c0.253,-0.732 0.032,-1.33 -0.508,-1.99z"/>
   <path id="svg_22" d="m116.926,356.303c0.541,0.659 0.975,1.3 1.389,2.046c0.414,0.749 0.612,1.452 0.701,2.138c0.092,0.686 0.076,1.351 -0.176,2.08c-0.229,0.626 -0.695,1.315 -1.355,1.854c-0.66,0.543 -1.406,0.955 -2.092,1.046c-0.686,0.092 -1.348,0.076 -2.081,-0.177c-0.623,-0.229 -1.333,-0.59 -2.024,-1.055c-0.689,-0.467 -1.251,-1.021 -1.792,-1.68c-0.542,-0.66 -0.975,-1.298 -1.388,-2.046c-0.414,-0.747 -0.612,-1.453 -0.704,-2.137c-0.09,-0.687 -0.053,-1.458 0.178,-2.082c0.23,-0.623 0.695,-1.313 1.357,-1.854c0.659,-0.54 1.386,-0.846 2.091,-1.045c0.687,-0.091 1.349,-0.074 2.08,0.178c0.731,0.249 1.333,0.588 2.025,1.055c0.581,0.447 1.25,1.018 1.791,1.679zm-1.064,0.909c-0.542,-0.659 -1.102,-1.212 -1.599,-1.53c-0.495,-0.317 -1.098,-0.655 -1.613,-0.867c-0.517,-0.209 -1.075,-0.204 -1.544,-0.072c-0.472,0.133 -0.941,0.265 -1.345,0.633c-0.532,0.453 -0.851,0.95 -0.954,1.486c-0.103,0.537 -0.098,1.094 0.014,1.672c0.111,0.577 0.331,1.176 0.677,1.687c0.348,0.512 0.675,1.133 1.15,1.557c0.455,0.532 0.821,0.937 1.404,1.382c0.473,0.424 0.969,0.742 1.591,0.973c0.519,0.213 1.054,0.314 1.612,0.31c0.556,-0.005 1.048,-0.244 1.581,-0.699c0.531,-0.453 0.85,-0.947 0.953,-1.485c0.102,-0.536 0.097,-1.094 -0.016,-1.672c-0.11,-0.578 -0.329,-1.178 -0.675,-1.687c-0.435,-0.644 -0.868,-1.283 -1.236,-1.688z"/>
   <path id="svg_23" d="m128.574,354.754l-1.322,1.081l-10.733,-4.951l6.88,8.22l-1.044,0.802l-8.156,-9.688l1.448,-1.169l10.346,4.653l-6.514,-7.813l1.064,-0.908l8.031,9.773z"/>
   <path id="svg_24" d="m131.872,341.032l-0.914,0.714l-1.992,-2.385l-2.109,1.71l6.708,7.964l1.575,-1.258l0.715,0.917l-4.131,3.549l-0.713,-0.917l1.597,-1.362l-6.707,-7.964l-2.109,1.711l1.991,2.386l-0.916,0.713l-2.706,-3.301l6.899,-5.799l2.812,3.322z"/>
   <path id="svg_25" d="m145.286,340.71l-6.217,5.15l-8.157,-9.687l6.217,-5.15l0.715,0.916l-5.173,4.35l2.898,3.449l3.833,-3.16l0.716,0.916l-3.835,3.159l2.987,3.577l5.174,-4.348l0.842,0.828z"/>
   <path id="svg_26" d="m153.635,333.743l-1.321,1.083l-10.734,-4.952l6.881,8.218l-1.043,0.802l-8.158,-9.687l1.447,-1.17l10.347,4.654l-6.513,-7.814l1.065,-0.907l8.029,9.773z"/>
   <path id="svg_27" d="m158.573,321.338c0.54,0.659 0.974,1.3 1.387,2.047c0.306,0.725 0.611,1.45 0.596,2.115c-0.015,0.666 -0.032,1.33 -0.283,2.061c-0.231,0.625 -0.698,1.314 -1.359,1.854l-3.171,2.618l-8.158,-9.688l3.173,-2.619c0.66,-0.54 1.279,-0.867 1.984,-1.065c0.686,-0.091 1.35,-0.075 2.103,0.069c0.622,0.229 1.354,0.482 1.915,1.034c0.71,0.36 1.272,0.912 1.813,1.574zm-1.064,0.907c-1.083,-1.321 -2.16,-2.084 -3.214,-2.395c-1.053,-0.314 -1.992,-0.05 -2.909,0.665l-2.129,1.817l6.707,7.961l2.128,-1.816c0.809,-0.734 1.21,-1.658 1.074,-2.686c-0.01,-1.115 -0.555,-2.333 -1.657,-3.546z"/>
  </g>
  <g id="svg_28" fill="#EEF5DB">
   <path id="svg_29" d="m217.981,327.947c-0.554,0.649 -1.106,1.189 -1.768,1.73c-0.661,0.43 -1.322,0.858 -1.976,0.962c-0.66,0.212 -1.317,0.203 -2.08,0.086c-0.654,-0.117 -1.414,-0.453 -2.065,-1.006l-3.139,-2.659l8.083,-9.748l3.142,2.658c0.649,0.555 1.08,1.104 1.401,1.766c0.212,0.657 0.315,1.314 0.306,2.08c-0.117,0.651 -0.235,1.416 -0.678,2.066c-0.227,0.764 -0.673,1.416 -1.226,2.065zm-1.082,-0.777c1.105,-1.299 1.665,-2.496 1.786,-3.587s-0.307,-1.972 -1.172,-2.744l-2.167,-1.773l-6.646,8.015l2.169,1.772c0.865,0.665 1.848,0.895 2.834,0.577c1.095,-0.207 2.197,-1.069 3.196,-2.26z"/>
   <path id="svg_30" d="m221.572,339.242l-6.171,-5.203l8.084,-9.747l6.175,5.203l-0.774,0.869l-5.089,-4.321l-2.881,3.467l3.789,3.211l-0.773,0.866l-3.79,-3.212l-2.99,3.573l5.199,4.321l-0.779,0.973z"/>
   <path id="svg_31" d="m238.865,337.139l-11.334,6.978l-1.407,-1.107l4.834,-12.405l1.084,0.886l-4.383,11.1l10.014,-6.34l1.192,0.888z"/>
   <path id="svg_32" d="m238.361,353.198l-6.173,-5.202l8.085,-9.748l6.174,5.203l-0.774,0.865l-5.2,-4.319l-2.879,3.466l3.79,3.213l-0.774,0.864l-3.789,-3.21l-2.992,3.573l5.2,4.318l-0.668,0.977z"/>
   <path id="svg_33" d="m246.485,359.954l-6.174,-5.205l8.088,-9.746l0.971,0.887l-7.312,8.88l5.2,4.32l-0.773,0.864z"/>
   <path id="svg_34" d="m259.459,362.612c-0.554,0.649 -1.104,1.19 -1.767,1.729c-0.661,0.539 -1.321,0.858 -1.979,1.072c-0.659,0.209 -1.426,0.31 -2.078,0.194c-0.656,-0.116 -1.418,-0.451 -2.066,-1.008c-0.65,-0.551 -1.191,-1.212 -1.399,-1.87c-0.212,-0.66 -0.314,-1.315 -0.197,-2.082c0.118,-0.761 0.343,-1.414 0.681,-2.179c0.335,-0.759 0.78,-1.41 1.332,-2.06c0.556,-0.65 1.106,-1.189 1.768,-1.73c0.662,-0.539 1.322,-0.86 1.98,-1.07c0.657,-0.211 1.425,-0.313 2.079,-0.195c0.654,0.116 1.415,0.453 2.063,1.007c0.649,0.553 1.081,1.213 1.401,1.872c0.213,0.659 0.314,1.315 0.196,2.079c-0.118,0.766 -0.344,1.417 -0.681,2.178c-0.334,0.651 -0.779,1.413 -1.333,2.063zm-0.974,-0.887c0.555,-0.65 0.998,-1.299 1.223,-1.845c0.336,-0.651 0.451,-1.197 0.565,-1.741c0.117,-0.546 0.015,-1.095 -0.202,-1.533c-0.214,-0.439 -0.425,-0.88 -0.86,-1.212c-0.54,-0.441 -1.084,-0.666 -1.631,-0.673c-0.546,-0.007 -1.095,0.097 -1.644,0.311c-0.548,0.213 -1.099,0.535 -1.54,0.965c-0.442,0.435 -0.992,0.864 -1.328,1.406c-0.439,0.433 -0.774,0.975 -1.109,1.627c-0.335,0.545 -0.558,1.088 -0.674,1.742c-0.116,0.547 -0.125,1.091 -0.019,1.641c0.102,0.546 0.425,0.987 0.968,1.431c0.539,0.44 1.085,0.669 1.631,0.674c0.547,0.005 1.095,-0.099 1.644,-0.31c0.55,-0.213 1.097,-0.534 1.542,-0.968c0.549,-0.539 0.992,-1.081 1.434,-1.515z"/>
   <path id="svg_35" d="m269.356,367.199c-0.777,0.978 -1.654,1.404 -2.638,1.394c-0.985,-0.011 -1.965,-0.46 -3.046,-1.345l-2.166,-1.773l-3.435,4.116l-0.973,-0.884l8.084,-9.749l3.249,2.659c1.083,0.886 1.73,1.768 1.938,2.753c-0.01,0.984 -0.347,1.854 -1.013,2.829zm-1.085,-0.885c0.554,-0.651 0.781,-1.302 0.569,-1.96c-0.213,-0.659 -0.642,-1.319 -1.291,-1.872l-2.166,-1.772l-3.212,3.789l2.166,1.771c0.76,0.554 1.41,0.891 2.066,1.008c0.654,0.005 1.313,-0.205 1.868,-0.964z"/>
   <path id="svg_36" d="m271.5,380.778l-6.172,-5.206l8.085,-9.747l6.172,5.204l-0.774,0.865l-5.198,-4.317l-2.879,3.465l3.79,3.212l-0.774,0.865l-3.79,-3.212l-2.993,3.685l5.2,4.318l-0.667,0.868z"/>
   <path id="svg_37" d="m280.275,387.978l-1.3,-1.109l0.619,-6.551l-1.518,-1.218l-3.434,4.226l-0.975,-0.888l7.976,-9.746l3.251,2.656c1.082,0.889 1.73,1.77 1.936,2.753c0.209,0.988 -0.021,1.86 -0.795,2.836c-0.333,0.432 -0.665,0.756 -1.104,0.97c-0.439,0.216 -0.876,0.319 -1.314,0.313c-0.438,-0.004 -0.875,-0.008 -1.312,-0.121c-0.435,-0.115 -0.872,-0.339 -1.304,-0.671l-0.726,6.55zm4.566,-7.929c0.557,-0.649 0.78,-1.304 0.568,-1.96c-0.211,-0.661 -0.642,-1.211 -1.291,-1.873l-2.166,-1.772l-3.102,3.791l2.168,1.774c0.759,0.553 1.409,0.888 2.064,0.896c0.657,0.116 1.207,-0.206 1.759,-0.856z"/>
  </g>
  <path id="svg_38" d="m175.507,288.827c2.623,-2.077 6.011,-3.278 9.289,-3.059c4.045,0.219 7.433,1.967 9.946,5.027c4.809,5.902 3.934,14.536 -1.967,19.343c-5.901,4.809 -14.536,3.935 -19.345,-1.967c-2.186,-2.622 -3.279,-6.011 -3.06,-9.398c0.328,-3.935 2.076,-7.431 5.137,-9.946zm-0.657,-0.983c-2.84,2.295 -4.808,5.791 -5.354,9.291c-0.656,4.371 0.437,8.415 3.169,11.802c5.246,6.447 14.645,7.321 21.093,2.185c6.447,-5.245 7.322,-14.643 2.187,-21.092c-2.295,-2.841 -5.684,-4.809 -9.29,-5.354c-4.373,-0.656 -8.525,0.436 -11.805,3.168zm3.061,3.935c-4.263,3.498 -4.918,9.836 -1.421,14.208c3.497,4.262 9.835,4.918 14.207,1.42c4.371,-3.496 4.918,-9.835 1.421,-14.207c-3.496,-4.373 -9.836,-5.028 -14.207,-1.421z" fill="#EEF5DB"/>
 </g>
</svg>